<mxfile host="65bd71144e">
    <diagram id="ghwg-So9vppFuraRZu9X" name="Page-1">
        <mxGraphModel dx="805" dy="840" grid="1" gridSize="10" guides="1" tooltips="1" connect="1" arrows="1" fold="1" page="1" pageScale="1" pageWidth="850" pageHeight="1100" math="0" shadow="0">
            <root>
                <mxCell id="0"/>
                <mxCell id="1" parent="0"/>
                <mxCell id="2" value="" style="rounded=0;whiteSpace=wrap;html=1;fillColor=#FFFFFF;" vertex="1" parent="1">
                    <mxGeometry x="40" y="120" width="1060" height="660" as="geometry"/>
                </mxCell>
                <mxCell id="3" value="ESP32/Raspberry Pi&lt;br&gt;via PubSubClient/Requests" style="sketch=0;outlineConnect=0;fontColor=#232F3E;gradientColor=none;strokeColor=#232F3E;fillColor=#ffffff;dashed=0;verticalLabelPosition=bottom;verticalAlign=top;align=center;html=1;fontSize=12;fontStyle=0;aspect=fixed;shape=mxgraph.aws4.resourceIcon;resIcon=mxgraph.aws4.generic;" vertex="1" parent="1">
                    <mxGeometry x="240" y="300" width="60" height="60" as="geometry"/>
                </mxCell>
                <mxCell id="5" value="Client-Side" style="swimlane;whiteSpace=wrap;html=1;labelBackgroundColor=#FFFFFF;fontColor=#000000;fillColor=#FFFFFF;strokeColor=#000000;startSize=23;" vertex="1" parent="1">
                    <mxGeometry x="170" y="250" width="200" height="280" as="geometry"/>
                </mxCell>
                <mxCell id="4" value="React.js Frontend UI&#10;via Axios" style="shape=image;verticalLabelPosition=bottom;labelBackgroundColor=#FFFFFF;verticalAlign=top;aspect=fixed;imageAspect=0;image=https://upload.wikimedia.org/wikipedia/commons/thumb/a/a7/React-icon.svg/2300px-React-icon.svg.png;fontColor=#000000;" vertex="1" parent="5">
                    <mxGeometry x="64.34" y="160" width="71.33" height="62" as="geometry"/>
                </mxCell>
                <mxCell id="6" value="Server-Side" style="swimlane;whiteSpace=wrap;html=1;labelBackgroundColor=#FFFFFF;fontColor=#000000;fillColor=#FFFFFF;strokeColor=#000000;startSize=23;" vertex="1" parent="1">
                    <mxGeometry x="480" y="250" width="200" height="280" as="geometry"/>
                </mxCell>
                <mxCell id="8" value="Node,js Backend" style="shape=image;verticalLabelPosition=bottom;labelBackgroundColor=none;verticalAlign=top;aspect=fixed;imageAspect=0;image=https://upload.wikimedia.org/wikipedia/commons/thumb/d/d9/Node.js_logo.svg/1200px-Node.js_logo.svg.png;fontColor=#000000;" vertex="1" parent="6">
                    <mxGeometry x="40.47" y="73" width="119.05" height="72.81" as="geometry"/>
                </mxCell>
                <mxCell id="23" value="Express REST API Middleware" style="shape=image;verticalLabelPosition=bottom;labelBackgroundColor=#FFFFFF;verticalAlign=top;aspect=fixed;imageAspect=0;image=https://expressjs.com/images/express-facebook-share.png;fontColor=#000000;" vertex="1" parent="6">
                    <mxGeometry x="43.200000000000045" y="183" width="113.6" height="41" as="geometry"/>
                </mxCell>
                <mxCell id="10" value="Database" style="swimlane;whiteSpace=wrap;html=1;labelBackgroundColor=#FFFFFF;fontColor=#000000;fillColor=#FFFFFF;strokeColor=#000000;startSize=23;" vertex="1" parent="1">
                    <mxGeometry x="780" y="250" width="200" height="280" as="geometry"/>
                </mxCell>
                <mxCell id="12" value="MySQL Database" style="shape=image;verticalLabelPosition=bottom;labelBackgroundColor=none;verticalAlign=top;aspect=fixed;imageAspect=0;image=https://d1.awsstatic.com/asset-repository/products/amazon-rds/1024px-MySQL.ff87215b43fd7292af172e2a5d9b844217262571.png;fontColor=#000000;" vertex="1" parent="10">
                    <mxGeometry x="52.45" y="111.81" width="95.09" height="49.19" as="geometry"/>
                </mxCell>
                <mxCell id="14" value="" style="edgeStyle=orthogonalEdgeStyle;html=1;endArrow=block;elbow=vertical;startArrow=block;startFill=1;endFill=1;strokeColor=#545B64;rounded=0;fontColor=#000000;" edge="1" parent="1">
                    <mxGeometry width="100" relative="1" as="geometry">
                        <mxPoint x="696" y="400" as="sourcePoint"/>
                        <mxPoint x="766" y="400" as="targetPoint"/>
                    </mxGeometry>
                </mxCell>
                <mxCell id="15" value="" style="edgeStyle=orthogonalEdgeStyle;html=1;endArrow=block;elbow=vertical;startArrow=none;endFill=1;strokeColor=#545B64;rounded=0;fontColor=#000000;" edge="1" parent="1">
                    <mxGeometry width="100" relative="1" as="geometry">
                        <mxPoint x="390" y="379" as="sourcePoint"/>
                        <mxPoint x="460" y="379" as="targetPoint"/>
                    </mxGeometry>
                </mxCell>
                <mxCell id="16" value="" style="edgeStyle=orthogonalEdgeStyle;html=1;endArrow=none;elbow=vertical;startArrow=block;startFill=1;strokeColor=#545B64;rounded=0;fontColor=#000000;" edge="1" parent="1">
                    <mxGeometry width="100" relative="1" as="geometry">
                        <mxPoint x="390" y="409" as="sourcePoint"/>
                        <mxPoint x="455" y="409" as="targetPoint"/>
                    </mxGeometry>
                </mxCell>
                <mxCell id="17" value="HTTP Request" style="text;html=1;align=center;verticalAlign=middle;resizable=0;points=[];autosize=1;strokeColor=none;fillColor=none;fontColor=#000000;" vertex="1" parent="1">
                    <mxGeometry x="375" y="340" width="100" height="30" as="geometry"/>
                </mxCell>
                <mxCell id="18" value="HTTP Response" style="text;html=1;align=center;verticalAlign=middle;resizable=0;points=[];autosize=1;strokeColor=none;fillColor=none;fontColor=#000000;" vertex="1" parent="1">
                    <mxGeometry x="370" y="434" width="110" height="30" as="geometry"/>
                </mxCell>
                <mxCell id="20" value="" style="shape=image;verticalLabelPosition=bottom;labelBackgroundColor=default;verticalAlign=top;aspect=fixed;imageAspect=0;image=https://cdn-images-1.medium.com/max/1148/1*XcE0wR1ZmWLFbdF2dE5WuA.png;" vertex="1" parent="1">
                    <mxGeometry x="690" y="350" width="81.47" height="34" as="geometry"/>
                </mxCell>
                <mxCell id="24" value="JSON" style="text;html=1;align=center;verticalAlign=middle;resizable=0;points=[];autosize=1;strokeColor=none;fillColor=none;fontColor=#000000;" vertex="1" parent="1">
                    <mxGeometry x="395" y="380" width="60" height="30" as="geometry"/>
                </mxCell>
            </root>
        </mxGraphModel>
    </diagram>
</mxfile>